<svg id="Layer_1" data-name="Layer 1" xmlns="http://www.w3.org/2000/svg" viewBox="0 0 529.84 430.05"><defs><style>.cls-1{fill:#f26800;}</style></defs><title>404</title><path class="cls-1" d="M549.5,40.37l79.37,7.35a6.59,6.59,0,0,1,4.89,10.19l-46.54,70.31a6.59,6.59,0,0,1-11.56-1.07L542.82,49.49A6.59,6.59,0,0,1,549.5,40.37Z" transform="translate(-105.02 -40.34)"/><path class="cls-1" d="M124.37,465.39,105.22,388a6.58,6.58,0,0,1,8-8l81.69,20.83a6.59,6.59,0,0,1,2.79,11.27l-62.54,56.54A6.59,6.59,0,0,1,124.37,465.39Z" transform="translate(-105.02 -40.34)"/><path d="M297.1,245.67h-18v-10.2H247.2l-.8-13.2,32.7-37.61h18v35.8h8.5v15h-8.5Zm-18-41.91c-1.2,1.6-3,3.8-4.6,5.6l-4.7,5.2a65.7,65.7,0,0,1-5.9,5.9h15.2Z" transform="translate(-105.02 -40.34)"/><path d="M367.5,215.36c0,20-9.1,31.21-28.5,31.21s-28.5-11.2-28.5-31.21c0-20.3,9.2-31.7,28.5-31.7S367.5,195.06,367.5,215.36Zm-18.9,0c0-10.1-1.9-15-9.6-15s-9.6,4.9-9.6,15c0,9.71,2,14.51,9.6,14.51S348.6,225.07,348.6,215.36Z" transform="translate(-105.02 -40.34)"/><path d="M421.6,245.67h-18v-10.2H371.7l-.8-13.2,32.7-37.61h18v35.8h8.5v15h-8.5Zm-18-41.91c-1.2,1.6-3,3.8-4.6,5.6l-4.7,5.2a65.7,65.7,0,0,1-5.9,5.9h15.2Z" transform="translate(-105.02 -40.34)"/></svg>