<svg id="Layer_1" data-name="Layer 1" xmlns="http://www.w3.org/2000/svg" viewBox="0 0 606.33 430.05"><defs><style>.cls-1{fill:#f26800;}</style></defs><title>login</title><path d="M76.23,240,71,218.85c-.54-2.52-1.08-5.67-1.62-9.09-.54,3.42-1.08,6.57-1.62,9.09L62.55,240H42.48L28.53,185.1H46.26l6.48,30.33a64.28,64.28,0,0,1,.9,6.39l1.08-6.39,5.67-30.33H78.48l5.67,30.33.9,6.3a63.57,63.57,0,0,1,1-6.39l6.48-30.24h17.73L96.3,240Z" transform="translate(-28.53 -40.34)"/><path d="M152.37,233.79c-7,5-13.14,7-20.7,7-13.86,0-22.5-7.74-22.5-22.41,0-14.94,8.37-23,22.59-23,12.6,0,20.61,7.47,20.7,21.06a38.1,38.1,0,0,1-.45,6H125c.81,4.14,3.06,5.85,7.47,5.85,5.94,0,9.81-1.17,15.39-3.78Zm-14-20c-.18-4.77-2.43-7.29-6.57-7.29-3.69,0-6.12,2.34-6.84,7.29Z" transform="translate(-28.53 -40.34)"/><path d="M158.31,240V182.13H174.6V240Z" transform="translate(-28.53 -40.34)"/><path d="M221,234.33c-6.12,4.5-11.52,6.48-20,6.48-11.79,0-21.33-7.92-21.33-22.5,0-14.94,8.82-22.95,21.42-22.95a34.82,34.82,0,0,1,18.36,4.77L215,210.48a31,31,0,0,0-11.61-2.34c-4.86,0-7.74,3.87-7.74,10.17,0,6,2.88,9.72,7.65,9.72a30.34,30.34,0,0,0,12.78-3.33Z" transform="translate(-28.53 -40.34)"/><path d="M268.83,218.31c0,14.31-8.55,22.5-23,22.5s-23-8.19-23-22.5c0-14.67,8.55-22.95,23-22.95S268.83,203.64,268.83,218.31Zm-15.93,0c0-7.65-2.7-10.17-7.11-10.17s-7.11,2.52-7.11,10.17c0,7.29,2.61,9.72,7.11,9.72S252.9,225.6,252.9,218.31Z" transform="translate(-28.53 -40.34)"/><path d="M290.25,202.11c4.95-4.59,8.82-6.66,13.68-6.66,6.12,0,9.81,2.25,11.52,7.47,6.21-5.76,10.26-7.47,14.76-7.47,9,0,12.6,4.77,12.6,16.65V240H326.52V216.78c0-4.23-1.17-6-3.78-6-1.89,0-3.87,1.08-6.12,3.6V240H300.33V216.78c0-4.23-1.26-6-3.87-6-2.16,0-4.23,1.44-6.21,3.69V240H274V196.17h16.29Z" transform="translate(-28.53 -40.34)"/><path d="M390.51,233.79c-7,5-13.14,7-20.7,7-13.86,0-22.5-7.74-22.5-22.41,0-14.94,8.37-23,22.59-23,12.6,0,20.61,7.47,20.7,21.06a38.1,38.1,0,0,1-.45,6h-27c.81,4.14,3.06,5.85,7.47,5.85,5.94,0,9.81-1.17,15.39-3.78Zm-14-20c-.18-4.77-2.43-7.29-6.57-7.29-3.69,0-6.12,2.34-6.84,7.29Z" transform="translate(-28.53 -40.34)"/><path d="M430.11,201.57c4.32-4.32,8.37-6.12,13.41-6.12,10.71,0,16.2,6.66,16.2,22.14,0,16.38-8,23.22-17.1,23.22-6.66,0-9.09-2.07-12.51-5.76V240H413.82V182.13h16.29Zm0,21.87c1.8,2.61,3.69,4,7,4,4.14,0,6.48-3,6.48-9.81,0-6-2.16-8.55-6.12-8.55-3,0-5.22,1.44-7.38,4.23Z" transform="translate(-28.53 -40.34)"/><path d="M466.83,198.78c10.62-2.88,15-3.42,19.44-3.42,13.05,0,18.54,5.31,18.54,18V240H488.7v-5.13c-3.33,3.78-7.11,5.94-11.88,5.94-9.09,0-14.31-3.15-14.31-13.86,0-9.27,6.21-13.59,18.54-13.59h7.65c0-3.78-1.08-5.67-5.49-5.67a75.76,75.76,0,0,0-13.95,1.89ZM483.3,221c-3.6,0-5.67,1-5.67,3.87,0,2.61,1.89,4.23,4.68,4.23a9.8,9.8,0,0,0,6.39-2.61V221Z" transform="translate(-28.53 -40.34)"/><path d="M550.62,234.33c-6.12,4.5-11.52,6.48-20,6.48-11.79,0-21.33-7.92-21.33-22.5,0-14.94,8.82-22.95,21.42-22.95a34.82,34.82,0,0,1,18.36,4.77l-4.41,10.35a31,31,0,0,0-11.61-2.34c-4.86,0-7.74,3.87-7.74,10.17,0,6,2.88,9.72,7.65,9.72a30.34,30.34,0,0,0,12.78-3.33Z" transform="translate(-28.53 -40.34)"/><path d="M570.69,209.85l12.06-13.68h18.09v1.26l-16,17.73,16.38,23.58V240H582.48l-8.37-12.42-3.42,3.87V240H554.4V182.13h16.29Z" transform="translate(-28.53 -40.34)"/><path d="M614.79,222.36a9.18,9.18,0,1,1-9.18,9.18A8.84,8.84,0,0,1,614.79,222.36Z" transform="translate(-28.53 -40.34)"/><path class="cls-1" d="M549.5,40.37l79.37,7.35a6.59,6.59,0,0,1,4.89,10.19l-46.54,70.31a6.59,6.59,0,0,1-11.56-1.07L542.82,49.49A6.59,6.59,0,0,1,549.5,40.37Z" transform="translate(-28.53 -40.34)"/><path d="M122.15,306.33l-3.48-14.1c-.36-1.68-.72-3.78-1.08-6.06-.36,2.28-.72,4.38-1.08,6.06L113,306.33H99.65l-9.3-36.6h11.82L106.49,290a42.86,42.86,0,0,1,.6,4.26l.72-4.26,3.78-20.22h12.06L127.43,290l.6,4.2a42.38,42.38,0,0,1,.66-4.26L133,269.73h11.82l-9.3,36.6Z" transform="translate(-28.53 -40.34)"/><path d="M172.91,302.19c-4.68,3.3-8.76,4.68-13.8,4.68-9.24,0-15-5.16-15-14.94,0-10,5.58-15.36,15.06-15.36,8.4,0,13.74,5,13.8,14a25.4,25.4,0,0,1-.3,4h-18c.54,2.76,2,3.9,5,3.9A21.62,21.62,0,0,0,169.91,296Zm-9.36-13.32c-.12-3.18-1.62-4.86-4.38-4.86-2.46,0-4.08,1.56-4.56,4.86Z" transform="translate(-28.53 -40.34)"/><path d="M176.57,283.53c2.28-1.68,3.6-2.94,4.5-4.92a6.11,6.11,0,0,1,1.86-11.94c3.66,0,6.18,2.88,6.18,6.66,0,4.56-3.9,10-10,13.38Z" transform="translate(-28.53 -40.34)"/><path d="M202.55,306.33l-11.16-29.22h11.22l4.68,13.32c.42,1.38.84,2.88,1.2,4.32.42-1.44.78-2.94,1.26-4.32l4.68-13.32h11.22l-11.16,29.22Z" transform="translate(-28.53 -40.34)"/><path d="M253.91,302.19c-4.68,3.3-8.76,4.68-13.8,4.68-9.24,0-15-5.16-15-14.94,0-10,5.58-15.36,15.06-15.36,8.4,0,13.74,5,13.8,14a25.4,25.4,0,0,1-.3,4h-18c.54,2.76,2,3.9,5,3.9A21.62,21.62,0,0,0,250.91,296Zm-9.36-13.32c-.12-3.18-1.62-4.86-4.38-4.86-2.46,0-4.08,1.56-4.56,4.86Z" transform="translate(-28.53 -40.34)"/><path d="M280.31,281.07c3.3-3.06,5.88-4.44,9.12-4.44,4.08,0,6.54,1.5,7.68,5,4.14-3.84,6.84-5,9.84-5,6,0,8.4,3.18,8.4,11.1v18.6H304.49V290.85c0-2.82-.78-4-2.52-4-1.26,0-2.58.72-4.08,2.4v17.1H287V290.85c0-2.82-.84-4-2.58-4-1.44,0-2.82,1-4.14,2.46v17H269.45V277.11h10.86Z" transform="translate(-28.53 -40.34)"/><path d="M325.91,263.07c3.18,0,6.12,1.86,6.12,5.58s-2.94,5.52-6.12,5.52-6.12-1.86-6.12-5.52S322.73,263.07,325.91,263.07Zm-5.4,43.26V277.11h10.86v29.22Z" transform="translate(-28.53 -40.34)"/><path d="M358.37,285.81c-4.68-1.2-7.2-1.68-9.66-1.68-1.38,0-2.34.42-2.34,1.32,0,1.38,1.44,1.38,6.66,2.88,5.52,1.62,7.86,3.9,7.86,8.64,0,6.42-4.8,9.9-12.06,9.9a35.84,35.84,0,0,1-14.28-3.72l2.64-7.32c4.44,2,8.58,3.24,10.86,3.24,1.5,0,2-.36,2-1.08,0-1.2-1.5-1.5-6.06-2.88-5.34-1.62-7.86-4.44-7.86-9.06,0-6,4.26-9.48,11.22-9.48a39.33,39.33,0,0,1,13.26,2Z" transform="translate(-28.53 -40.34)"/><path d="M386,285.81c-4.68-1.2-7.2-1.68-9.66-1.68-1.38,0-2.34.42-2.34,1.32,0,1.38,1.44,1.38,6.66,2.88,5.52,1.62,7.86,3.9,7.86,8.64,0,6.42-4.8,9.9-12.06,9.9a35.84,35.84,0,0,1-14.28-3.72l2.64-7.32c4.44,2,8.58,3.24,10.86,3.24,1.5,0,2-.36,2-1.08,0-1.2-1.5-1.5-6.06-2.88-5.34-1.62-7.86-4.44-7.86-9.06,0-6,4.26-9.48,11.22-9.48a39.33,39.33,0,0,1,13.26,2Z" transform="translate(-28.53 -40.34)"/><path d="M419.51,302.19c-4.68,3.3-8.76,4.68-13.8,4.68-9.24,0-15-5.16-15-14.94,0-10,5.58-15.36,15.06-15.36,8.4,0,13.74,5,13.8,14a25.4,25.4,0,0,1-.3,4h-18c.54,2.76,2,3.9,5,3.9A21.62,21.62,0,0,0,416.51,296Zm-9.36-13.32c-.12-3.18-1.62-4.86-4.38-4.86-2.46,0-4.08,1.56-4.56,4.86Z" transform="translate(-28.53 -40.34)"/><path d="M441.89,306.33V303c-2.28,2.46-4,3.84-8.34,3.84-6.06,0-11.4-4.56-11.4-15.48,0-10.32,4.14-14.82,10.8-14.82a11.43,11.43,0,0,1,8.94,3.66V267.75h10.86v38.58Zm0-17.82c-1.44-1.86-2.94-2.82-4.92-2.82-2.7,0-4.14,1.68-4.14,5.7,0,4.56,1.62,6.48,4.32,6.48a5.13,5.13,0,0,0,4.74-2.58Z" transform="translate(-28.53 -40.34)"/><path d="M500.69,277.17c-2.94,8.94-5.82,17.52-9,23.58a29.73,29.73,0,0,1-18.36,15.6l-3.54-8.16a22.06,22.06,0,0,0,7.26-4.5l-10.32-26.52H478l4.38,11.88,1.32,4.5a96.3,96.3,0,0,0,5.52-16.38Z" transform="translate(-28.53 -40.34)"/><path d="M531.35,291.87c0,9.54-5.7,15-15.36,15s-15.36-5.46-15.36-15c0-9.78,5.7-15.3,15.36-15.3S531.35,282.09,531.35,291.87Zm-10.62,0c0-5.1-1.8-6.78-4.74-6.78s-4.74,1.68-4.74,6.78c0,4.86,1.74,6.48,4.74,6.48S520.73,296.73,520.73,291.87Z" transform="translate(-28.53 -40.34)"/><path d="M553.25,306.33v-3.42c-3.78,2.52-5.64,4-8.94,4-6.12,0-9.48-3.24-9.48-11.16v-18.6h10.86v15.72c0,3.06.48,4.08,2.7,4.08a6.73,6.73,0,0,0,4.86-2.76v-17h10.86v29.22Z" transform="translate(-28.53 -40.34)"/><path d="M575.39,294.57a6.12,6.12,0,1,1-6.12,6.12A5.89,5.89,0,0,1,575.39,294.57Z" transform="translate(-28.53 -40.34)"/><path class="cls-1" d="M124.37,465.39,105.22,388a6.58,6.58,0,0,1,8-8l81.69,20.83a6.59,6.59,0,0,1,2.79,11.27l-62.54,56.54A6.59,6.59,0,0,1,124.37,465.39Z" transform="translate(-28.53 -40.34)"/></svg>