<svg xmlns="http://www.w3.org/2000/svg" viewBox="0 0 393.77 114.03"><defs><style>.cls-1{fill:#f26800;}</style></defs><title>Asset 1</title><g id="Layer_2" data-name="Layer 2"><g id="Layer_1-2" data-name="Layer 1"><path class="cls-1" d="M387.17,102.89H364.51a6.58,6.58,0,0,1-5.74-9.81L370.1,72.89a6.59,6.59,0,0,1,11.49,0l11.33,20.19A6.59,6.59,0,0,1,387.17,102.89Z"/><path d="M37.33,16.84C71.12,17,90.1,34.13,90,64.36s-19.28,47.18-53.07,47L0,111.21.44,16.67ZM37,86.74c15,.07,23.6-7.95,23.67-22.52S52.25,41.4,37.22,41.33l-7.91,0L29.1,86.7Z"/><path d="M116.15,0c8.21,0,15.79,4.88,15.74,14.49,0,9.45-7.66,14.22-15.87,14.19s-15.79-4.88-15.75-14.34S107.93,0,116.15,0ZM101.68,111.69,102,36.2l28.05.14-.35,75.48Z"/><path d="M198.26,107.8c-5.28,3.23-14.9,5.51-23.27,5.47-18.14-.09-25.85-8.49-25.75-30l.11-23.55-10.23,0,.11-23.1,10.23,0,.07-16.12,28.06.13-.07,16.12,17.66.08-.1,23.1-17.67-.08-.11,22.31c0,5.58,1.67,8.85,8.64,8.88,3.26,0,6.05,0,9.61-.11Z"/><path d="M261,108.09c-5.29,3.23-14.91,5.51-23.28,5.47-18.13-.08-25.84-8.49-25.74-30L212.13,60l-10.23,0,.11-23.1,10.22,0,.08-16.12,28.05.13L240.29,37l17.67.08-.11,23.1-17.67-.08-.1,22.32c0,5.58,1.66,8.84,8.64,8.87,3.25,0,6,0,9.61-.11Z"/><path d="M344.58,75.46c-.11,24.65-14.9,38.68-39.86,38.57s-39.61-14.29-39.5-38.94c.12-25.26,14.91-39.45,39.87-39.34S344.7,50.2,344.58,75.46Zm-27.43-.13c.06-13.17-4.57-17.53-12.17-17.57s-12.26,4.29-12.32,17.46C292.6,87.78,297.07,92,304.82,92S317.09,87.89,317.15,75.33Z"/><rect x="174.75" y="36.67" width="40.71" height="23.26"/></g></g></svg>