<svg id="Layer_1" data-name="Layer 1" xmlns="http://www.w3.org/2000/svg" viewBox="0 0 640 700"><defs><style>.cls-1{fill:#f26800;}</style></defs><title>Artboard 1</title><path class="cls-1" d="M25.13,363.84l-9.51-22.56a6.59,6.59,0,0,1,6.74-9.11l25.34,2.6a6.58,6.58,0,0,1,4.49,10.64l-15.83,20A6.59,6.59,0,0,1,25.13,363.84Z"/><path d="M61.38,48.13V79h-13V48.13H35.69V36.3H74.05V48.13Z"/><path d="M83.57,28.52c3.71,0,7.14,2.17,7.14,6.52s-3.43,6.44-7.14,6.44S76.43,39.31,76.43,35,79.86,28.52,83.57,28.52ZM77.27,79V44.91H89.94V79Z"/><path d="M109.05,51.49c2.52-5,5.11-7.14,8.89-7.14a33.22,33.22,0,0,1,4.2.21l-.84,12.88c-1.68-.14-2.8-.14-4-.14-4.13,0-6.93,1.05-8.26,5.88V79H96.38V44.91h12.67Z"/><path d="M156.86,74.17c-5.46,3.85-10.22,5.46-16.1,5.46-10.78,0-17.5-6-17.5-17.43,0-11.62,6.51-17.92,17.57-17.92,9.8,0,16,5.81,16.1,16.38a29.63,29.63,0,0,1-.35,4.69h-21c.63,3.22,2.38,4.55,5.81,4.55,4.62,0,7.63-.91,12-2.94ZM145.94,58.63c-.14-3.71-1.89-5.67-5.11-5.67-2.87,0-4.76,1.82-5.32,5.67Z"/><path d="M183,79V75.15c-2.66,2.87-4.62,4.48-9.73,4.48-7.07,0-13.3-5.32-13.3-18.06,0-12,4.83-17.29,12.6-17.29A13.34,13.34,0,0,1,183,48.55V34h12.67V79Zm0-20.79c-1.68-2.17-3.43-3.29-5.74-3.29-3.15,0-4.83,2-4.83,6.65,0,5.32,1.89,7.56,5,7.56a6,6,0,0,0,5.53-3Z"/><path d="M249.47,62.13c0,11.13-6.65,17.5-17.92,17.5s-17.92-6.37-17.92-17.5c0-11.41,6.65-17.85,17.92-17.85S249.47,50.72,249.47,62.13Zm-12.39,0c0-6-2.1-7.91-5.53-7.91s-5.53,2-5.53,7.91c0,5.67,2,7.56,5.53,7.56S237.08,67.8,237.08,62.13Z"/><path d="M255.7,44.21c0-9.31,4.48-13.31,14.28-13.31a32.92,32.92,0,0,1,7.56.85l-.84,8.68-4.27-.07c-3.22,0-4.06,1.61-4.06,4v.56h8.12v10.5h-8.12V79H255.7V55.41h-4.48V44.91h4.48Z"/><path d="M324.44,74.59a23.58,23.58,0,0,1-15.54,5c-9.17,0-16.59-6.16-16.59-17.5,0-11.62,6.86-17.85,16.66-17.85A27.08,27.08,0,0,1,323.25,48l-3.43,8a24.07,24.07,0,0,0-9-1.82c-3.78,0-6,3-6,7.91,0,4.69,2.24,7.56,6,7.56a23.6,23.6,0,0,0,9.94-2.59Z"/><path d="M327.38,79V34h12.67V79Z"/><path d="M352.58,28.52c3.71,0,7.14,2.17,7.14,6.52s-3.43,6.44-7.14,6.44-7.14-2.17-7.14-6.44S348.87,28.52,352.58,28.52ZM346.28,79V44.91H359V79Z"/><path d="M395.42,74.59a23.58,23.58,0,0,1-15.54,5c-9.17,0-16.59-6.16-16.59-17.5,0-11.62,6.86-17.85,16.66-17.85A27.08,27.08,0,0,1,394.23,48l-3.43,8a24.07,24.07,0,0,0-9-1.82c-3.78,0-6,3-6,7.91,0,4.69,2.24,7.56,5.95,7.56a23.6,23.6,0,0,0,9.94-2.59Z"/><path d="M411,55.55l9.38-10.64h14.07v1L422,59.68,434.76,78v1H420.2l-6.51-9.66-2.66,3V79H398.36V34H411Z"/><path d="M450.51,49.11c3.36-3.36,6.51-4.76,10.43-4.76,8.33,0,12.6,5.18,12.6,17.22,0,12.74-6.23,18.06-13.3,18.06-5.18,0-7.07-1.61-9.73-4.48V79H437.84V34h12.67Zm0,17c1.4,2,2.87,3.08,5.46,3.08,3.22,0,5-2.31,5-7.63,0-4.69-1.68-6.65-4.76-6.65-2.31,0-4.06,1.12-5.74,3.29Z"/><path d="M479.07,46.94c8.26-2.24,11.69-2.66,15.12-2.66,10.15,0,14.42,4.13,14.42,14V79H496.08V75c-2.59,2.94-5.53,4.62-9.24,4.62-7.07,0-11.13-2.45-11.13-10.78,0-7.21,4.83-10.57,14.42-10.57h5.95c0-2.94-.84-4.41-4.27-4.41A58.92,58.92,0,0,0,481,55.34Zm12.81,17.29c-2.8,0-4.41.77-4.41,3,0,2,1.47,3.29,3.64,3.29a7.62,7.62,0,0,0,5-2V64.23Z"/><path d="M521.07,28.52c3.71,0,7.14,2.17,7.14,6.52s-3.43,6.44-7.14,6.44-7.14-2.17-7.14-6.44S517.36,28.52,521.07,28.52ZM514.77,79V44.91h12.67V79Z"/><path d="M558,77c-2.38,1.47-6.72,2.52-10.5,2.52-8.19,0-11.69-3.78-11.69-13.51V55.41h-4.62V45h4.62V37.7h12.67V45h8V55.41h-8V65.49c0,2.52.77,4,3.92,4,1.47,0,2.73,0,4.34-.07Z"/><path d="M132.21,130.94c8.27-2.24,11.7-2.66,15.13-2.66,10.15,0,14.42,4.13,14.42,14V163H149.23v-4c-2.59,2.94-5.53,4.62-9.25,4.62-7.07,0-11.13-2.45-11.13-10.78,0-7.21,4.83-10.57,14.43-10.57h5.95c0-2.94-.84-4.41-4.27-4.41a59,59,0,0,0-10.86,1.47ZM145,148.23c-2.8,0-4.42.77-4.42,3,0,2,1.47,3.29,3.65,3.29a7.62,7.62,0,0,0,5-2v-4.27Z"/><path d="M179.67,133.46c4.49-3.5,7.78-5.11,11.63-5.11,7.14,0,9.87,3.71,9.87,13V163H188.5V144.94c0-3.57-.63-4.69-3.15-4.69-2.18,0-4,1.26-5.68,3.15V163H167V128.91h12.67Z"/><path d="M227.84,163v-3.85c-2.66,2.87-4.62,4.48-9.73,4.48-7.08,0-13.31-5.32-13.31-18.06,0-12,4.83-17.29,12.61-17.29a13.34,13.34,0,0,1,10.43,4.27V118h12.67v45Zm0-20.79c-1.68-2.17-3.43-3.29-5.74-3.29-3.15,0-4.83,2-4.83,6.65,0,5.32,1.89,7.56,5,7.56a6,6,0,0,0,5.53-3Z"/><path d="M261.78,128.21c0-9.31,4.48-13.31,14.28-13.31a33.07,33.07,0,0,1,7.57.85l-.84,8.68-4.27-.07c-3.23,0-4.07,1.61-4.07,4v.56h8.13v10.5h-8.13V163H261.78V139.41H257.3v-10.5h4.48Z"/><path d="M285.65,130.94c8.26-2.24,11.7-2.66,15.12-2.66,10.16,0,14.43,4.13,14.43,14V163H302.67v-4c-2.6,2.94-5.53,4.62-9.25,4.62-7.07,0-11.13-2.45-11.13-10.78,0-7.21,4.83-10.57,14.42-10.57h6c0-2.94-.84-4.41-4.27-4.41a58.9,58.9,0,0,0-10.86,1.47Zm12.82,17.29c-2.81,0-4.42.77-4.42,3,0,2,1.47,3.29,3.64,3.29a7.62,7.62,0,0,0,5-2v-4.27Z"/><path d="M333.32,139.55l9.39-10.64h14.07v1l-12.46,13.79L357.06,162v1H342.5L336,153.34l-2.66,3V163H320.65V118h12.67Z"/><path d="M390.38,158.17c-5.46,3.85-10.22,5.46-16.11,5.46-10.78,0-17.5-6-17.5-17.43,0-11.62,6.51-17.92,17.57-17.92,9.81,0,16,5.81,16.11,16.38a29.63,29.63,0,0,1-.35,4.69h-21c.63,3.22,2.38,4.55,5.82,4.55,4.62,0,7.63-.91,12-2.94Zm-10.92-15.54c-.14-3.71-1.89-5.67-5.12-5.67-2.87,0-4.76,1.82-5.32,5.67Z"/><path d="M421.17,133.46c4.48-3.5,7.77-5.11,11.62-5.11,7.15,0,9.88,3.71,9.88,13V163H430V144.94c0-3.57-.63-4.69-3.15-4.69-2.17,0-4,1.26-5.67,3.15V163H408.5V128.91h12.67Z"/><path d="M479.83,158.17c-5.45,3.85-10.22,5.46-16.1,5.46-10.78,0-17.5-6-17.5-17.43,0-11.62,6.51-17.92,17.57-17.92,9.8,0,16,5.81,16.11,16.38a30.87,30.87,0,0,1-.35,4.69h-21c.63,3.22,2.38,4.55,5.81,4.55,4.62,0,7.64-.91,12-2.94Zm-10.92-15.54c-.14-3.71-1.89-5.67-5.11-5.67-2.87,0-4.76,1.82-5.32,5.67Z"/><path d="M512,163l-4.06-16.45L503.77,163h-14l-8.89-34h12.46l4.2,17.92c.21,1,.28,2.17.42,3.36.21-1.12.42-2.31.7-3.36L503.42,129h8.83l4.83,17.92c.21,1.19.49,2.45.63,3.64a36.68,36.68,0,0,1,.56-3.71L522.4,129h12.46L526,163Z"/><path d="M562.71,139.06c-5.46-1.4-8.4-2-11.27-2-1.61,0-2.73.49-2.73,1.54,0,1.61,1.68,1.61,7.77,3.36,6.44,1.89,9.17,4.55,9.17,10.08,0,7.49-5.6,11.55-14.07,11.55-4.76,0-11.41-1.75-16.66-4.34l3.08-8.54c5.18,2.38,10,3.78,12.67,3.78,1.75,0,2.38-.42,2.38-1.26,0-1.4-1.75-1.75-7.07-3.36-6.23-1.89-9.17-5.18-9.17-10.57,0-7,5-11.06,13.09-11.06a45.88,45.88,0,0,1,15.47,2.31Z"/><path d="M567.19,124.92c7.84-3.43,13.16-5.32,19.25-5.32,9.52,0,15.68,5.88,15.68,13.51,0,6.72-5.39,11.34-14.49,13.23l.21,2.87H577.62l-1.89-10.78h1.89c8.82-.14,11.06-1.61,11.06-3.85,0-2.8-2-4.13-4.62-4.13-3.71,0-8.12,1.4-13.44,3.57Zm21.56,32.69a5.92,5.92,0,1,1-5.88-5.88A5.76,5.76,0,0,1,588.75,157.61Z"/><path class="cls-1" d="M41.84,204.16c8.72,0,13.64,4.4,13.64,12.2s-4.92,12.2-13.64,12.2H32.32v-24.4Zm0,18c3.88,0,6.08-2.08,6.08-5.84s-2.2-5.88-6.08-5.88h-2V222.2Z"/><path class="cls-1" d="M61.92,199.72C64,199.72,66,201,66,203.44s-2,3.68-4.08,3.68-4.08-1.24-4.08-3.68S59.8,199.72,61.92,199.72Zm-3.6,28.84V209.08h7.24v19.48Z"/><path class="cls-1" d="M83,227.44a12.77,12.77,0,0,1-6,1.44c-4.68,0-6.68-2.16-6.68-7.72v-6.08H67.68v-6h2.64V205h7.24v4.16h4.56v6H77.56v5.76c0,1.44.44,2.28,2.24,2.28.84,0,1.56,0,2.48,0Z"/><path class="cls-1" d="M99,227.44a12.77,12.77,0,0,1-6,1.44c-4.68,0-6.68-2.16-6.68-7.72v-6.08H83.64v-6h2.64V205h7.24v4.16h4.56v6H93.52v5.76c0,1.44.44,2.28,2.24,2.28.84,0,1.56,0,2.48,0Z"/><path class="cls-1" d="M120.24,218.92c0,6.36-3.8,10-10.24,10s-10.24-3.64-10.24-10c0-6.52,3.8-10.2,10.24-10.2S120.24,212.4,120.24,218.92Zm-7.08,0c0-3.4-1.2-4.52-3.16-4.52s-3.16,1.12-3.16,4.52c0,3.24,1.16,4.32,3.16,4.32S113.16,222.16,113.16,218.92Z"/><path d="M127,209.08a4.08,4.08,0,1,1-4.08,4.08A3.93,3.93,0,0,1,127,209.08Zm0,11.64a4.08,4.08,0,1,1-4.08,4.08A3.93,3.93,0,0,1,127,220.72Z"/><path d="M143.08,210.24c4.72-1.28,6.68-1.52,8.64-1.52,5.8,0,8.24,2.36,8.24,8v11.84H152.8v-2.28a6.83,6.83,0,0,1-5.28,2.64c-4,0-6.36-1.4-6.36-6.16,0-4.12,2.76-6,8.24-6h3.4c0-1.68-.48-2.52-2.44-2.52a33.67,33.67,0,0,0-6.2.84Zm7.32,9.88c-1.6,0-2.52.44-2.52,1.72a1.86,1.86,0,0,0,2.08,1.88,4.35,4.35,0,0,0,2.84-1.16v-2.44Z"/><path d="M188.44,226a13.47,13.47,0,0,1-8.88,2.88c-5.24,0-9.48-3.52-9.48-10,0-6.64,3.92-10.2,9.52-10.2a15.48,15.48,0,0,1,8.16,2.12l-2,4.6a13.76,13.76,0,0,0-5.16-1c-2.16,0-3.44,1.72-3.44,4.52s1.28,4.32,3.4,4.32a13.48,13.48,0,0,0,5.68-1.48Z"/><path d="M209.72,218.92c0,6.36-3.8,10-10.24,10s-10.24-3.64-10.24-10c0-6.52,3.8-10.2,10.24-10.2S209.72,212.4,209.72,218.92Zm-7.08,0c0-3.4-1.2-4.52-3.16-4.52s-3.16,1.12-3.16,4.52c0,3.24,1.16,4.32,3.16,4.32S202.64,222.16,202.64,218.92Z"/><path d="M219.24,211.72c2.2-2,3.92-3,6.08-3,2.72,0,4.36,1,5.12,3.32,2.75-2.56,4.55-3.32,6.55-3.32,4,0,5.6,2.12,5.6,7.4v12.4h-7.24V218.24c0-1.88-.52-2.68-1.67-2.68a3.82,3.82,0,0,0-2.72,1.6v11.4h-7.24V218.24c0-1.88-.56-2.68-1.72-2.68a4,4,0,0,0-2.76,1.64v11.36H212V209.08h7.24Z"/><path d="M252.76,211.72c2.2-2,3.92-3,6.08-3,2.72,0,4.35,1,5.11,3.32,2.76-2.56,4.56-3.32,6.56-3.32,4,0,5.6,2.12,5.6,7.4v12.4h-7.24V218.24c0-1.88-.52-2.68-1.68-2.68a3.81,3.81,0,0,0-2.71,1.6v11.4h-7.24V218.24c0-1.88-.56-2.68-1.72-2.68a4,4,0,0,0-2.76,1.64v11.36h-7.24V209.08h7.24Z"/><path d="M291.2,228.56v-2.28c-2.52,1.68-3.76,2.64-6,2.64-4.08,0-6.32-2.16-6.32-7.44v-12.4h7.24v10.48c0,2,.32,2.72,1.8,2.72a4.48,4.48,0,0,0,3.24-1.84V209.08h7.24v19.48Z"/><path d="M309.12,211.68c2.56-2,4.44-2.92,6.64-2.92,4.08,0,5.64,2.12,5.64,7.4v12.4h-7.24V218.24c0-2-.36-2.68-1.8-2.68a4.43,4.43,0,0,0-3.24,1.8v11.2h-7.24V209.08h7.24Z"/><path d="M328.48,199.72c2.12,0,4.08,1.24,4.08,3.72s-2,3.68-4.08,3.68-4.08-1.24-4.08-3.68S326.36,199.72,328.48,199.72Zm-3.6,28.84V209.08h7.24v19.48Z"/><path d="M349.56,227.44a12.77,12.77,0,0,1-6,1.44c-4.68,0-6.68-2.16-6.68-7.72v-6.08h-2.64v-6h2.64V205h7.24v4.16h4.56v6h-4.56v5.76c0,1.44.44,2.28,2.24,2.28.84,0,1.56,0,2.48,0Z"/><path d="M372.75,209.12c-1.95,6-3.87,11.68-6,15.72a19.8,19.8,0,0,1-12.24,10.39l-2.36-5.43a14.71,14.71,0,0,0,4.84-3l-6.88-17.68h7.48l2.92,7.92.88,3a64.2,64.2,0,0,0,3.68-10.92Z"/><path d="M403.11,209.12c-2,6-3.88,11.68-6,15.72a19.76,19.76,0,0,1-12.23,10.39l-2.36-5.43a14.71,14.71,0,0,0,4.84-3l-6.88-17.68H388l2.92,7.92.88,3a63.39,63.39,0,0,0,3.67-10.92Z"/><path d="M423.55,218.92c0,6.36-3.8,10-10.23,10s-10.24-3.64-10.24-10c0-6.52,3.8-10.2,10.24-10.2S423.55,212.4,423.55,218.92Zm-7.08,0c0-3.4-1.19-4.52-3.15-4.52s-3.16,1.12-3.16,4.52c0,3.24,1.16,4.32,3.16,4.32S416.47,222.16,416.47,218.92Z"/><path d="M438.16,228.56v-2.28c-2.52,1.68-3.76,2.64-6,2.64-4.08,0-6.32-2.16-6.32-7.44v-12.4h7.24v10.48c0,2,.32,2.72,1.8,2.72a4.48,4.48,0,0,0,3.24-1.84V209.08h7.23v19.48Z"/><path d="M474,226a13.46,13.46,0,0,1-8.87,2.88c-5.24,0-9.48-3.52-9.48-10,0-6.64,3.92-10.2,9.52-10.2a15.44,15.44,0,0,1,8.15,2.12l-2,4.6a13.75,13.75,0,0,0-5.15-1c-2.16,0-3.44,1.72-3.44,4.52s1.28,4.32,3.4,4.32a13.48,13.48,0,0,0,5.67-1.48Z"/><path d="M476.92,210.24c4.72-1.28,6.68-1.52,8.64-1.52,5.79,0,8.23,2.36,8.23,8v11.84h-7.16v-2.28a6.79,6.79,0,0,1-5.27,2.64c-4,0-6.36-1.4-6.36-6.16,0-4.12,2.76-6,8.24-6h3.39c0-1.68-.47-2.52-2.43-2.52a33.67,33.67,0,0,0-6.2.84Zm7.32,9.88c-1.6,0-2.52.44-2.52,1.72a1.86,1.86,0,0,0,2.08,1.88,4.31,4.31,0,0,0,2.83-1.16v-2.44Z"/><path d="M504,211.68c2.56-2,4.43-2.92,6.63-2.92,4.08,0,5.64,2.12,5.64,7.4v12.4h-7.23V218.24c0-2-.37-2.68-1.8-2.68a4.43,4.43,0,0,0-3.24,1.8v11.2H496.8V209.08H504Z"/><path d="M541.15,227.44a12.77,12.77,0,0,1-6,1.44c-4.68,0-6.67-2.16-6.67-7.72v-6.08h-2.64v-6h2.64V205h7.23v4.16h4.56v6h-4.56v5.76c0,1.44.44,2.28,2.24,2.28.84,0,1.56,0,2.48,0Z"/><path d="M550.59,212.84c1.44-2.84,2.92-4.08,5.08-4.08a19,19,0,0,1,2.4.12l-.48,7.36c-1-.08-1.6-.08-2.28-.08-2.36,0-4,.6-4.72,3.36v9h-7.23V209.08h7.23Z"/><path d="M572.07,228.56v-2.28c-2.52,1.68-3.76,2.64-6,2.64-4.08,0-6.32-2.16-6.32-7.44v-12.4H567v10.48c0,2,.32,2.72,1.8,2.72a4.48,4.48,0,0,0,3.24-1.84V209.08h7.24v19.48Z"/><path d="M597.55,214.88a25.86,25.86,0,0,0-6.44-1.12c-.92,0-1.56.28-1.56.88,0,.92,1,.92,4.44,1.92,3.68,1.08,5.24,2.6,5.24,5.76,0,4.28-3.2,6.6-8,6.6a23.85,23.85,0,0,1-9.51-2.48l1.76-4.88a20.82,20.82,0,0,0,7.23,2.16c1,0,1.36-.24,1.36-.72,0-.8-1-1-4-1.92-3.56-1.08-5.24-3-5.24-6,0-4,2.84-6.32,7.47-6.32a26.22,26.22,0,0,1,8.84,1.32Z"/><path d="M615.51,227.44a12.77,12.77,0,0,1-6,1.44c-4.68,0-6.67-2.16-6.67-7.72v-6.08H600.2v-6h2.64V205h7.23v4.16h4.56v6h-4.56v5.76c0,1.44.44,2.28,2.24,2.28.84,0,1.56,0,2.48,0Z"/><path d="M621.79,220.72a4.08,4.08,0,1,1-4.08,4.08A3.93,3.93,0,0,1,621.79,220.72Z"/><path d="M51.14,314.12l-2.2-8.93c-.23-1.06-.46-2.39-.68-3.84-.23,1.45-.46,2.78-.69,3.84l-2.2,8.93H36.9L31,290.94h7.48l2.74,12.81c.15.83.3,1.74.38,2.69l.45-2.69,2.4-12.81h7.63l2.4,12.81.38,2.66a25.6,25.6,0,0,1,.41-2.7L58,290.94H65.5l-5.88,23.18Z"/><path d="M71,286.73c2,0,3.88,1.17,3.88,3.53S73,293.75,71,293.75s-3.87-1.17-3.87-3.49S69,286.73,71,286.73Zm-3.42,27.39v-18.5h6.88v18.5Z"/><path d="M91,313.06a12.26,12.26,0,0,1-5.7,1.36c-4.45,0-6.35-2.05-6.35-7.33v-5.78H76.45v-5.66H79V291.7h6.88v3.95h4.33v5.66H85.84v5.48c0,1.36.42,2.16,2.13,2.16.79,0,1.48,0,2.35,0Z"/><path d="M99.86,298.28c2.43-2.09,4.22-3,6.31-3,3.87,0,5.36,2,5.36,7v11.78h-6.88v-9.61c0-1.94-.31-2.55-1.71-2.55a4.23,4.23,0,0,0-3.08,1.71v10.45H93V289.69h6.88Z"/><path d="M133.49,314.12V312c-2.39,1.6-3.57,2.51-5.66,2.51-3.88,0-6-2-6-7.07V295.62h6.88v9.95c0,1.94.31,2.58,1.71,2.58a4.27,4.27,0,0,0,3.08-1.74V295.62h6.88v18.5Z"/><path d="M150.51,297.71a8.06,8.06,0,0,1,5.67-2.4c4.52,0,6.83,2.81,6.83,9.39,0,6.91-3.38,9.76-7.21,9.76a6,6,0,0,1-5.29-2.43v7.86h-6.87V295.62h6.87Zm0,9.42a3.27,3.27,0,0,0,3,1.67c1.75,0,2.73-1.25,2.73-4.14,0-2.55-.91-3.61-2.58-3.61a3.85,3.85,0,0,0-3.12,1.78Z"/><path d="M169.74,314.12l-7.06-18.5h7.1l3,8.43c.27.87.54,1.82.76,2.74.27-.92.5-1.87.8-2.74l3-8.43h7.1l-7.07,18.5Z"/><path d="M203.52,305c0,6-3.61,9.5-9.72,9.5s-9.73-3.46-9.73-9.5,3.61-9.69,9.73-9.69S203.52,298.77,203.52,305Zm-6.72,0c0-3.23-1.14-4.29-3-4.29s-3,1.06-3,4.29,1.11,4.11,3,4.11S196.8,308,196.8,305Z"/><path d="M219.18,313.06a12.23,12.23,0,0,1-5.7,1.36c-4.45,0-6.35-2.05-6.35-7.33v-5.78h-2.5v-5.66h2.5V291.7H214v3.95h4.33v5.66H214v5.48c0,1.36.42,2.16,2.13,2.16.8,0,1.48,0,2.35,0Z"/><path d="M238.14,311.5a14.19,14.19,0,0,1-8.74,3c-5.85,0-9.5-3.27-9.5-9.46s3.54-9.73,9.54-9.73c5.32,0,8.7,3.16,8.74,8.89a16.31,16.31,0,0,1-.19,2.55h-11.4c.34,1.75,1.29,2.47,3.15,2.47a13.62,13.62,0,0,0,6.5-1.6Zm-5.93-8.44c-.07-2-1-3.07-2.77-3.07-1.56,0-2.58,1-2.89,3.07Z"/><path d="M254.44,301.13a24.62,24.62,0,0,0-6.11-1.07c-.88,0-1.49.27-1.49.84,0,.87.92.87,4.22,1.82,3.5,1,5,2.47,5,5.47,0,4.07-3,6.27-7.64,6.27a22.78,22.78,0,0,1-9-2.35l1.67-4.64a19.81,19.81,0,0,0,6.88,2c1,0,1.29-.23,1.29-.68,0-.76-.95-.95-3.84-1.83-3.38-1-5-2.81-5-5.73,0-3.8,2.69-6,7.1-6a24.82,24.82,0,0,1,8.4,1.26Z"/><path d="M266.83,296.72c4.49-1.22,6.35-1.45,8.21-1.45,5.51,0,7.83,2.25,7.83,7.6v11.25h-6.81V312a6.46,6.46,0,0,1-5,2.51c-3.84,0-6-1.33-6-5.85,0-3.91,2.62-5.74,7.83-5.74h3.22c0-1.59-.45-2.39-2.31-2.39a32.16,32.16,0,0,0-5.89.8Zm6.95,9.38c-1.51,0-2.39.42-2.39,1.64a1.77,1.77,0,0,0,2,1.78,4.1,4.1,0,0,0,2.69-1.1V306.1Z"/><path d="M292.59,298.09c2.44-1.9,4.22-2.78,6.31-2.78,3.88,0,5.36,2,5.36,7v11.78h-6.88v-9.8c0-1.94-.34-2.55-1.71-2.55a4.24,4.24,0,0,0-3.08,1.71v10.64h-6.87v-18.5h6.87Z"/><path d="M318.74,314.12V312a6.06,6.06,0,0,1-5.28,2.43c-3.84,0-7.22-2.89-7.22-9.8,0-6.54,2.62-9.39,6.84-9.39a7.26,7.26,0,0,1,5.66,2.32v-7.9h6.88v24.43Zm0-11.29a3.83,3.83,0,0,0-3.12-1.78c-1.71,0-2.62,1.06-2.62,3.61,0,2.89,1,4.1,2.74,4.1a3.25,3.25,0,0,0,3-1.63Z"/><path d="M347.88,314.12V312a6,6,0,0,1-5.28,2.43c-3.84,0-7.22-2.89-7.22-9.8,0-6.54,2.62-9.39,6.84-9.39a7.25,7.25,0,0,1,5.66,2.32v-7.9h6.88v24.43Zm0-11.29a3.82,3.82,0,0,0-3.11-1.78c-1.71,0-2.62,1.06-2.62,3.61,0,2.89,1,4.1,2.73,4.1a3.24,3.24,0,0,0,3-1.63Z"/><path d="M376.46,305c0,6-3.61,9.5-9.73,9.5S357,311,357,305s3.61-9.69,9.72-9.69S376.46,298.77,376.46,305Zm-6.73,0c0-3.23-1.14-4.29-3-4.29s-3,1.06-3,4.29,1.1,4.11,3,4.11S369.73,308,369.73,305Z"/><path d="M393.79,314.12l-2.21-8.93-2.24,8.93h-7.6l-4.82-18.47h6.76l2.28,9.73c.12.57.15,1.18.23,1.82.11-.6.23-1.25.38-1.82l2.58-9.73h4.79l2.62,9.73c.12.65.27,1.33.34,2,.08-.65.16-1.33.31-2l2.24-9.69h6.76l-4.79,18.47Z"/><path d="M414.84,298.09c2.43-1.9,4.22-2.78,6.31-2.78,3.87,0,5.35,2,5.35,7v11.78h-6.87v-9.8c0-1.94-.34-2.55-1.71-2.55a4.23,4.23,0,0,0-3.08,1.71v10.64H408v-18.5h6.88Z"/><path d="M433.76,314.12l-7.06-18.5h7.1l3,8.43c.26.87.53,1.82.76,2.74.26-.92.49-1.87.79-2.74l3-8.43h7.1l-7.06,18.5Z"/><path d="M467.55,305c0,6-3.61,9.5-9.73,9.5s-9.73-3.46-9.73-9.5,3.61-9.69,9.73-9.69S467.55,298.77,467.55,305Zm-6.73,0c0-3.23-1.14-4.29-3-4.29s-3,1.06-3,4.29,1.1,4.11,3,4.11S460.82,308,460.82,305Z"/><path d="M483.2,313.06a12.23,12.23,0,0,1-5.7,1.36c-4.44,0-6.34-2.05-6.34-7.33v-5.78h-2.51v-5.66h2.51V291.7H478v3.95h4.34v5.66H478v5.48c0,1.36.42,2.16,2.13,2.16.8,0,1.48,0,2.36,0Z"/><path d="M502.16,311.5a14.17,14.17,0,0,1-8.74,3c-5.85,0-9.49-3.27-9.49-9.46s3.53-9.73,9.53-9.73c5.32,0,8.7,3.16,8.74,8.89a16.31,16.31,0,0,1-.19,2.55h-11.4c.34,1.75,1.29,2.47,3.16,2.47a13.58,13.58,0,0,0,6.49-1.6Zm-5.92-8.44c-.08-2-1-3.07-2.78-3.07-1.56,0-2.58,1-2.89,3.07Z"/><path d="M518.47,301.13a24.68,24.68,0,0,0-6.12-1.07c-.88,0-1.48.27-1.48.84,0,.87.91.87,4.21,1.82,3.5,1,5,2.47,5,5.47,0,4.07-3,6.27-7.64,6.27a22.78,22.78,0,0,1-9-2.35l1.67-4.64a19.93,19.93,0,0,0,6.88,2c.95,0,1.29-.23,1.29-.68,0-.76-1-.95-3.83-1.83-3.39-1-5-2.81-5-5.73,0-3.8,2.7-6,7.1-6a24.75,24.75,0,0,1,8.4,1.26Z"/><path d="M522.34,317.35a7.75,7.75,0,0,0,2.85-3.12,3.9,3.9,0,0,1,1.18-7.6,4,4,0,0,1,3.91,4.26c0,2.89-2.47,6.34-6.34,8.47Z"/><path d="M84.64,357.33a12.87,12.87,0,0,1-8.44,2.73c-5,0-9-3.34-9-9.5s3.72-9.69,9-9.69a14.7,14.7,0,0,1,7.75,2l-1.86,4.37a13.06,13.06,0,0,0-4.9-1c-2.06,0-3.27,1.63-3.27,4.29s1.21,4.11,3.23,4.11a12.84,12.84,0,0,0,5.39-1.41Z"/><path d="M104.85,350.56c0,6-3.61,9.5-9.73,9.5s-9.72-3.46-9.72-9.5,3.61-9.69,9.72-9.69S104.85,344.37,104.85,350.56Zm-6.72,0c0-3.23-1.14-4.29-3-4.29s-3,1.06-3,4.29c0,3.08,1.11,4.11,3,4.11S98.13,353.64,98.13,350.56Z"/><path d="M113.9,343.69c2.43-1.9,4.21-2.78,6.3-2.78,3.88,0,5.36,2,5.36,7v11.78h-6.87v-9.8c0-1.94-.35-2.55-1.71-2.55a4.19,4.19,0,0,0-3.08,1.71v10.64H107v-18.5h6.88Z"/><path d="M141.56,358.66a12.23,12.23,0,0,1-5.7,1.36c-4.44,0-6.34-2-6.34-7.33v-5.78H127v-5.66h2.51V337.3h6.87v3.95h4.33v5.66h-4.33v5.48c0,1.36.42,2.16,2.13,2.16.8,0,1.48,0,2.36,0Z"/><path d="M160.52,357.1a14.19,14.19,0,0,1-8.74,3c-5.85,0-9.5-3.27-9.5-9.46s3.54-9.73,9.54-9.73c5.32,0,8.7,3.16,8.74,8.89a16.31,16.31,0,0,1-.19,2.55H149c.34,1.75,1.29,2.47,3.16,2.47a13.58,13.58,0,0,0,6.49-1.6Zm-5.93-8.44c-.07-2-1-3.08-2.77-3.08-1.56,0-2.58,1-2.89,3.08Z"/><path d="M169.72,343.69c2.43-1.9,4.22-2.78,6.31-2.78,3.87,0,5.35,2,5.35,7v11.78h-6.87v-9.8c0-1.94-.35-2.55-1.71-2.55a4.19,4.19,0,0,0-3.08,1.71v10.64h-6.88v-18.5h6.88Z"/><path d="M197.38,358.66a12.23,12.23,0,0,1-5.7,1.36c-4.44,0-6.34-2-6.34-7.33v-5.78h-2.51v-5.66h2.51V337.3h6.88v3.95h4.33v5.66h-4.33v5.48c0,1.36.41,2.16,2.12,2.16.8,0,1.48,0,2.36,0Z"/><path d="M218.51,365.49v-7.86a6,6,0,0,1-5.24,2.43c-3.84,0-7.22-2.89-7.22-9.8,0-6.54,2.32-9.39,6.84-9.39a7.81,7.81,0,0,1,5.62,2.44v-2.09h6.88v24.27Zm0-17.06a3.76,3.76,0,0,0-3.08-1.78c-1.71,0-2.58,1.06-2.58,3.61,0,2.89,1,4.1,2.7,4.1a3.15,3.15,0,0,0,3-1.63Z"/><path d="M240.09,359.72v-2.17c-2.39,1.6-3.57,2.51-5.66,2.51-3.87,0-6-2.05-6-7.07V341.22h6.88v9.95c0,1.94.3,2.58,1.71,2.58a4.25,4.25,0,0,0,3.07-1.74V341.22H247v18.5Z"/><path d="M251,342.32c4.48-1.22,6.35-1.45,8.21-1.45,5.51,0,7.82,2.25,7.82,7.6v11.25h-6.8v-2.17a6.46,6.46,0,0,1-5,2.51c-3.84,0-6-1.33-6-5.85,0-3.91,2.62-5.74,7.82-5.74h3.23c0-1.59-.45-2.39-2.31-2.39a31.3,31.3,0,0,0-5.89.8Zm7,9.38c-1.52,0-2.39.42-2.39,1.64a1.77,1.77,0,0,0,2,1.78,4.11,4.11,0,0,0,2.7-1.1V351.7Z"/><path d="M270,359.72V335.29h6.88v24.43Z"/><path d="M283.72,332.32c2,0,3.88,1.18,3.88,3.54s-1.87,3.49-3.88,3.49-3.87-1.17-3.87-3.49S281.71,332.32,283.72,332.32Zm-3.42,27.4v-18.5h6.88v18.5Z"/><path d="M303.75,358.66a12.26,12.26,0,0,1-5.7,1.36c-4.45,0-6.35-2-6.35-7.33v-5.78h-2.51v-5.66h2.51V337.3h6.88v3.95h4.33v5.66h-4.33v5.48c0,1.36.42,2.16,2.13,2.16.79,0,1.48,0,2.35,0Z"/><path d="M325.79,341.25c-1.87,5.66-3.69,11.1-5.7,14.94a18.84,18.84,0,0,1-11.63,9.87l-2.24-5.16a13.92,13.92,0,0,0,4.59-2.85l-6.53-16.8h7.1l2.78,7.53.83,2.85a60.82,60.82,0,0,0,3.5-10.38Z"/><path d="M338.4,332.32c2,0,3.88,1.18,3.88,3.54s-1.86,3.49-3.88,3.49-3.87-1.17-3.87-3.49S336.39,332.32,338.4,332.32ZM335,359.72v-18.5h6.88v18.5Z"/><path d="M359,346.72a24.55,24.55,0,0,0-6.12-1.06c-.87,0-1.48.27-1.48.84,0,.87.91.87,4.22,1.82,3.49,1,5,2.47,5,5.47,0,4.07-3,6.27-7.63,6.27a22.79,22.79,0,0,1-9.05-2.35l1.68-4.64a19.83,19.83,0,0,0,6.87,2.05c.95,0,1.29-.23,1.29-.68,0-.76-.95-.95-3.83-1.83-3.38-1-5-2.81-5-5.73,0-3.8,2.7-6,7.1-6a24.75,24.75,0,0,1,8.4,1.26Z"/><path d="M371.35,342.32c4.48-1.22,6.34-1.45,8.2-1.45,5.51,0,7.83,2.25,7.83,7.6v11.25h-6.8v-2.17a6.48,6.48,0,0,1-5,2.51c-3.83,0-6-1.33-6-5.85,0-3.91,2.63-5.74,7.83-5.74h3.23c0-1.59-.46-2.39-2.32-2.39a31.4,31.4,0,0,0-5.89.8Zm6.95,9.38c-1.52,0-2.39.42-2.39,1.64a1.76,1.76,0,0,0,2,1.78,4.13,4.13,0,0,0,2.7-1.1V351.7Z"/><path d="M390.35,359.72V335.29h6.87v24.43Z"/><path d="M415.84,359.72l-2.2-8.93-2.24,8.93h-7.6L399,341.25h6.77L408,351c.11.57.15,1.18.22,1.82.12-.6.23-1.25.39-1.82l2.58-9.73H416l2.62,9.73c.11.65.26,1.33.34,2,.08-.65.15-1.33.3-2l2.24-9.69h6.77l-4.79,18.47Z"/><path d="M429.56,342.32c4.49-1.22,6.35-1.45,8.21-1.45,5.51,0,7.83,2.25,7.83,7.6v11.25h-6.8v-2.17a6.49,6.49,0,0,1-5,2.51c-3.84,0-6-1.33-6-5.85,0-3.91,2.62-5.74,7.83-5.74h3.23c0-1.59-.46-2.39-2.32-2.39a31.3,31.3,0,0,0-5.89.8Zm7,9.38c-1.52,0-2.4.42-2.4,1.64a1.77,1.77,0,0,0,2,1.78,4.13,4.13,0,0,0,2.7-1.1V351.7Z"/><path d="M467.94,341.25c-1.86,5.66-3.68,11.1-5.7,14.94a18.82,18.82,0,0,1-11.62,9.87l-2.25-5.16a14,14,0,0,0,4.6-2.85l-6.53-16.8h7.1l2.78,7.53.83,2.85a60.82,60.82,0,0,0,3.5-10.38Z"/><path d="M482.42,346.72a24.48,24.48,0,0,0-6.12-1.06c-.87,0-1.48.27-1.48.84,0,.87.91.87,4.22,1.82,3.49,1,5,2.47,5,5.47,0,4.07-3,6.27-7.63,6.27a22.79,22.79,0,0,1-9.05-2.35l1.68-4.64a19.83,19.83,0,0,0,6.87,2.05c.95,0,1.3-.23,1.3-.68,0-.76-.95-.95-3.84-1.83-3.38-1-5-2.81-5-5.73,0-3.8,2.7-6,7.11-6a24.73,24.73,0,0,1,8.39,1.26Z"/><path d="M494.81,342.32c4.48-1.22,6.34-1.45,8.2-1.45,5.51,0,7.83,2.25,7.83,7.6v11.25H504v-2.17a6.47,6.47,0,0,1-5,2.51c-3.84,0-6-1.33-6-5.85,0-3.91,2.63-5.74,7.83-5.74H504c0-1.59-.46-2.39-2.32-2.39a31.4,31.4,0,0,0-5.89.8Zm6.95,9.38c-1.52,0-2.39.42-2.39,1.64a1.77,1.77,0,0,0,2,1.78A4.11,4.11,0,0,0,504,354V351.7Z"/><path d="M527.87,346.72a24.55,24.55,0,0,0-6.12-1.06c-.87,0-1.48.27-1.48.84,0,.87.91.87,4.21,1.82,3.5,1,5,2.47,5,5.47,0,4.07-3,6.27-7.63,6.27a22.79,22.79,0,0,1-9.05-2.35l1.67-4.64a19.93,19.93,0,0,0,6.88,2.05c.95,0,1.29-.23,1.29-.68,0-.76-1-.95-3.83-1.83-3.39-1-5-2.81-5-5.73,0-3.8,2.7-6,7.1-6a24.75,24.75,0,0,1,8.4,1.26Z"/><path d="M545.35,346.72a24.55,24.55,0,0,0-6.12-1.06c-.88,0-1.48.27-1.48.84,0,.87.91.87,4.21,1.82,3.5,1,5,2.47,5,5.47,0,4.07-3,6.27-7.64,6.27a22.78,22.78,0,0,1-9-2.35l1.67-4.64a19.93,19.93,0,0,0,6.88,2.05c1,0,1.29-.23,1.29-.68,0-.76-1-.95-3.84-1.83-3.38-1-5-2.81-5-5.73,0-3.8,2.7-6,7.1-6a24.75,24.75,0,0,1,8.4,1.26Z"/><path d="M560.77,359.72v-2.17c-2.39,1.6-3.57,2.51-5.66,2.51-3.87,0-6-2.05-6-7.07V341.22H556v9.95c0,1.94.3,2.58,1.71,2.58a4.25,4.25,0,0,0,3.07-1.74V341.22h6.88v18.5Z"/><path d="M577.8,344.79c1.37-2.7,2.77-3.88,4.82-3.88a17.06,17.06,0,0,1,2.28.12l-.45,7c-.91-.08-1.52-.08-2.17-.08-2.24,0-3.76.57-4.48,3.19v8.59h-6.88v-18.5h6.88Z"/><path d="M603.75,357.1a14.19,14.19,0,0,1-8.74,3c-5.85,0-9.5-3.27-9.5-9.46s3.54-9.73,9.54-9.73c5.32,0,8.7,3.16,8.74,8.89a16.31,16.31,0,0,1-.19,2.55H592.2c.34,1.75,1.29,2.47,3.15,2.47a13.59,13.59,0,0,0,6.5-1.6Zm-5.93-8.44c-.07-2-1-3.08-2.77-3.08-1.56,0-2.58,1-2.89,3.08Z"/><path d="M617.93,359.72v-2.09a6.07,6.07,0,0,1-5.29,2.43c-3.83,0-7.21-2.89-7.21-9.8,0-6.54,2.62-9.39,6.83-9.39a7.28,7.28,0,0,1,5.67,2.32v-7.9h6.87v24.43Zm0-11.29a3.85,3.85,0,0,0-3.12-1.78c-1.71,0-2.62,1.06-2.62,3.61,0,2.89,1,4.1,2.73,4.1a3.26,3.26,0,0,0,3-1.63Z"/><path d="M631.87,352.27a3.88,3.88,0,1,1-3.87,3.88A3.73,3.73,0,0,1,631.87,352.27Z"/><path class="cls-1" d="M25,485.46l-9.51-22.55a6.59,6.59,0,0,1,6.74-9.11l25.35,2.6A6.58,6.58,0,0,1,52,467L36.2,487A6.58,6.58,0,0,1,25,485.46Z"/><path d="M51.14,442.75l-2.2-8.93c-.23-1.07-.46-2.4-.68-3.84-.23,1.44-.46,2.77-.69,3.84l-2.2,8.93H36.9L31,419.57h7.48l2.74,12.8c.15.84.3,1.75.38,2.7l.45-2.7,2.4-12.8h7.63l2.4,12.8.38,2.66a25.4,25.4,0,0,1,.41-2.69L58,419.57H65.5l-5.88,23.18Z"/><path d="M71,415.35c2,0,3.88,1.18,3.88,3.54S73,422.38,71,422.38s-3.87-1.18-3.87-3.49S69,415.35,71,415.35Zm-3.42,27.4V424.24h6.88v18.51Z"/><path d="M91,441.68a12.14,12.14,0,0,1-5.7,1.37c-4.45,0-6.35-2.05-6.35-7.33v-5.78H76.45v-5.66H79v-3.95h6.88v3.95h4.33v5.66H85.84v5.47c0,1.37.42,2.17,2.13,2.17.79,0,1.48,0,2.35,0Z"/><path d="M99.86,426.9c2.43-2.09,4.22-3,6.31-3,3.87,0,5.36,2,5.36,7v11.78h-6.88v-9.62c0-1.93-.31-2.54-1.71-2.54a4.19,4.19,0,0,0-3.08,1.71v10.45H93V418.32h6.88Z"/><path d="M122.85,425.35c4.48-1.22,6.35-1.45,8.21-1.45,5.51,0,7.82,2.24,7.82,7.6v11.25h-6.8v-2.17a6.46,6.46,0,0,1-5,2.51c-3.84,0-6-1.33-6-5.85,0-3.92,2.62-5.74,7.82-5.74h3.23c0-1.6-.45-2.39-2.31-2.39a32,32,0,0,0-5.89.79Zm7,9.38c-1.52,0-2.39.42-2.39,1.63a1.77,1.77,0,0,0,2,1.79,4.1,4.1,0,0,0,2.69-1.1v-2.32Z"/><path d="M148.61,426.71c2.44-1.9,4.22-2.77,6.31-2.77,3.88,0,5.36,2,5.36,7v11.78H153.4v-9.81c0-1.93-.34-2.54-1.71-2.54a4.21,4.21,0,0,0-3.08,1.71v10.64h-6.87V424.24h6.87Z"/><path d="M171.6,425.35c4.49-1.22,6.35-1.45,8.21-1.45,5.51,0,7.83,2.24,7.83,7.6v11.25h-6.8v-2.17a6.49,6.49,0,0,1-5,2.51c-3.84,0-6-1.33-6-5.85,0-3.92,2.62-5.74,7.83-5.74h3.23c0-1.6-.46-2.39-2.32-2.39a32,32,0,0,0-5.89.79Zm7,9.38c-1.52,0-2.4.42-2.4,1.63a1.77,1.77,0,0,0,2,1.79,4.15,4.15,0,0,0,2.7-1.1v-2.32Z"/><path d="M207,440.35a12.78,12.78,0,0,1-8.43,2.74c-5,0-9-3.34-9-9.5s3.72-9.69,9-9.69a14.68,14.68,0,0,1,7.75,2l-1.86,4.37a13,13,0,0,0-4.9-1c-2,0-3.27,1.63-3.27,4.29s1.22,4.1,3.23,4.1a12.82,12.82,0,0,0,5.4-1.4Z"/><path d="M225.07,440.35a12.83,12.83,0,0,1-8.44,2.74c-5,0-9-3.34-9-9.5s3.72-9.69,9-9.69a14.68,14.68,0,0,1,7.75,2l-1.86,4.37a13,13,0,0,0-4.9-1c-2,0-3.27,1.63-3.27,4.29s1.22,4.1,3.23,4.1a12.86,12.86,0,0,0,5.4-1.4Z"/><path d="M245.28,433.59c0,6-3.6,9.5-9.72,9.5s-9.73-3.46-9.73-9.5,3.61-9.69,9.73-9.69S245.28,427.4,245.28,433.59Zm-6.72,0c0-3.23-1.14-4.29-3-4.29s-3,1.06-3,4.29,1.1,4.1,3,4.1S238.56,436.67,238.56,433.59Z"/><path d="M259.15,442.75v-2.17c-2.39,1.6-3.57,2.51-5.66,2.51-3.87,0-6-2-6-7.07V424.24h6.88v10c0,1.94.3,2.58,1.71,2.58a4.23,4.23,0,0,0,3.07-1.75V424.24H266v18.51Z"/><path d="M276.18,426.71c2.43-1.9,4.22-2.77,6.31-2.77,3.87,0,5.35,2,5.35,7v11.78H281v-9.81c0-1.93-.34-2.54-1.71-2.54a4.19,4.19,0,0,0-3.08,1.71v10.64H269.3V424.24h6.88Z"/><path d="M303.84,441.68a12.11,12.11,0,0,1-5.7,1.37c-4.44,0-6.34-2.05-6.34-7.33v-5.78h-2.51v-5.66h2.51v-3.95h6.88v3.95H303v5.66h-4.33v5.47c0,1.37.41,2.17,2.12,2.17.8,0,1.48,0,2.36,0Z"/><path d="M333.1,424.28c-1.86,5.66-3.68,11.1-5.7,14.93a18.8,18.8,0,0,1-11.62,9.88l-2.25-5.17a13.77,13.77,0,0,0,4.6-2.84l-6.53-16.8h7.1l2.78,7.52.83,2.85a60.39,60.39,0,0,0,3.5-10.37Z"/><path d="M352.52,433.59c0,6-3.61,9.5-9.73,9.5s-9.72-3.46-9.72-9.5,3.61-9.69,9.72-9.69S352.52,427.4,352.52,433.59Zm-6.73,0c0-3.23-1.14-4.29-3-4.29s-3,1.06-3,4.29,1.1,4.1,3,4.1S345.79,436.67,345.79,433.59Z"/><path d="M366.39,442.75v-2.17c-2.39,1.6-3.57,2.51-5.66,2.51-3.88,0-6-2-6-7.07V424.24h6.87v10c0,1.94.31,2.58,1.71,2.58a4.25,4.25,0,0,0,3.08-1.75V424.24h6.88v18.51Z"/><path d="M400.44,440.35a12.83,12.83,0,0,1-8.44,2.74c-5,0-9-3.34-9-9.5s3.72-9.69,9-9.69a14.68,14.68,0,0,1,7.75,2l-1.86,4.37a13,13,0,0,0-4.9-1c-2,0-3.27,1.63-3.27,4.29s1.22,4.1,3.23,4.1a12.86,12.86,0,0,0,5.4-1.4Z"/><path d="M403.21,425.35c4.49-1.22,6.35-1.45,8.21-1.45,5.51,0,7.83,2.24,7.83,7.6v11.25h-6.8v-2.17a6.49,6.49,0,0,1-5,2.51c-3.84,0-6-1.33-6-5.85,0-3.92,2.62-5.74,7.83-5.74h3.23c0-1.6-.46-2.39-2.32-2.39a32,32,0,0,0-5.89.79Zm7,9.38c-1.52,0-2.4.42-2.4,1.63a1.77,1.77,0,0,0,2,1.79,4.15,4.15,0,0,0,2.7-1.1v-2.32Z"/><path d="M429,426.71c2.43-1.9,4.21-2.77,6.3-2.77,3.88,0,5.36,2,5.36,7v11.78h-6.88v-9.81c0-1.93-.34-2.54-1.71-2.54a4.19,4.19,0,0,0-3.07,1.71v10.64H422.1V424.24H429Z"/><path d="M452.12,423.86c0-5.05,2.43-7.22,7.75-7.22a18.07,18.07,0,0,1,4.1.46l-.45,4.71-2.32,0c-1.75,0-2.2.88-2.2,2.17v.3h4.4v5.7H459v12.81h-6.88V429.94h-2.43v-5.7h2.43Z"/><path d="M484,433.59c0,6-3.61,9.5-9.73,9.5s-9.73-3.46-9.73-9.5,3.61-9.69,9.73-9.69S484,427.4,484,433.59Zm-6.73,0c0-3.23-1.14-4.29-3-4.29s-3,1.06-3,4.29,1.1,4.1,3,4.1S477.31,436.67,477.31,433.59Z"/><path d="M486.47,442.75V418.32h6.88v24.43Z"/><path d="M496.54,442.75V418.32h6.88v24.43Z"/><path d="M525.12,433.59c0,6-3.61,9.5-9.73,9.5s-9.73-3.46-9.73-9.5,3.61-9.69,9.73-9.69S525.12,427.4,525.12,433.59Zm-6.73,0c0-3.23-1.14-4.29-3-4.29s-3,1.06-3,4.29,1.1,4.1,3,4.1S518.39,436.67,518.39,433.59Z"/><path d="M542.44,442.75l-2.2-8.93L538,442.75h-7.6l-4.83-18.47h6.77l2.28,9.73c.11.57.15,1.18.22,1.82.12-.61.23-1.25.38-1.82l2.59-9.73h4.78l2.63,9.73c.11.64.26,1.33.34,2a18.81,18.81,0,0,1,.3-2l2.24-9.69h6.77l-4.79,18.47Z"/><path d="M79.58,488.35v-2.17c-2.39,1.6-3.57,2.51-5.66,2.51-3.87,0-6-2.05-6-7.07V469.84h6.87v10c0,1.94.31,2.58,1.71,2.58a4.25,4.25,0,0,0,3.08-1.75V469.84h6.88v18.51Z"/><path d="M103.79,475.35a24.55,24.55,0,0,0-6.12-1.06c-.87,0-1.48.26-1.48.83,0,.88.91.88,4.22,1.83,3.49,1,5,2.47,5,5.47,0,4.07-3,6.27-7.63,6.27a22.64,22.64,0,0,1-9-2.36l1.68-4.63a19.83,19.83,0,0,0,6.87,2.05c1,0,1.29-.23,1.29-.68,0-.76-1-.95-3.83-1.83-3.38-1-5-2.81-5-5.74,0-3.79,2.7-6,7.1-6a25,25,0,0,1,8.4,1.25Z"/><path d="M125,485.72a14.2,14.2,0,0,1-8.74,3c-5.85,0-9.5-3.27-9.5-9.46s3.54-9.73,9.54-9.73c5.32,0,8.7,3.15,8.74,8.89a16.39,16.39,0,0,1-.19,2.55h-11.4c.34,1.75,1.29,2.47,3.15,2.47a13.73,13.73,0,0,0,6.5-1.6Zm-5.93-8.43c-.07-2-1-3.08-2.77-3.08-1.56,0-2.58,1-2.89,3.08Z"/><path d="M134.23,473.42c1.36-2.7,2.77-3.88,4.82-3.88a18.6,18.6,0,0,1,2.28.11l-.45,7c-.92-.07-1.52-.07-2.17-.07-2.24,0-3.76.57-4.48,3.19v8.59h-6.88V469.84h6.88Z"/><path d="M156.49,475.35a24.49,24.49,0,0,0-6.11-1.06c-.88,0-1.48.26-1.48.83,0,.88.91.88,4.21,1.83,3.5,1,5,2.47,5,5.47,0,4.07-3,6.27-7.64,6.27a22.64,22.64,0,0,1-9-2.36l1.67-4.63a19.87,19.87,0,0,0,6.88,2.05c.95,0,1.29-.23,1.29-.68,0-.76-.95-.95-3.84-1.83-3.38-1-5-2.81-5-5.74,0-3.79,2.69-6,7.1-6a25,25,0,0,1,8.4,1.25Z"/><path d="M187.84,469.88c-1.86,5.66-3.68,11.1-5.7,14.93a18.78,18.78,0,0,1-11.62,9.88l-2.25-5.17a14,14,0,0,0,4.6-2.85l-6.53-16.79h7.1l2.78,7.52.83,2.85a60.39,60.39,0,0,0,3.5-10.37Z"/><path d="M207.26,479.19c0,6-3.61,9.5-9.73,9.5s-9.72-3.46-9.72-9.5,3.61-9.69,9.72-9.69S207.26,473,207.26,479.19Zm-6.73,0c0-3.23-1.13-4.29-3-4.29s-3,1.06-3,4.29c0,3.08,1.1,4.1,3,4.1S200.53,482.27,200.53,479.19Z"/><path d="M221.13,488.35v-2.17c-2.39,1.6-3.57,2.51-5.66,2.51-3.88,0-6-2.05-6-7.07V469.84h6.87v10c0,1.94.31,2.58,1.71,2.58a4.25,4.25,0,0,0,3.08-1.75V469.84H228v18.51Z"/><path d="M251.76,487.28a12.11,12.11,0,0,1-5.7,1.37c-4.45,0-6.35-2-6.35-7.33v-5.78h-2.5v-5.66h2.5v-3.95h6.88v3.95h4.33v5.66h-4.33V481c0,1.37.42,2.17,2.13,2.17.8,0,1.48,0,2.35,0Z"/><path d="M260.73,473.42c1.37-2.7,2.77-3.88,4.82-3.88a18.6,18.6,0,0,1,2.28.11l-.45,7c-.92-.07-1.52-.07-2.17-.07-2.24,0-3.76.57-4.48,3.19v8.59h-6.88V469.84h6.88Z"/><path d="M281.13,488.35v-2.17c-2.39,1.6-3.57,2.51-5.66,2.51-3.87,0-6-2.05-6-7.07V469.84h6.88v10c0,1.94.3,2.58,1.71,2.58a4.25,4.25,0,0,0,3.07-1.75V469.84H288v18.51Z"/><path d="M305.34,475.35a24.55,24.55,0,0,0-6.12-1.06c-.87,0-1.48.26-1.48.83,0,.88.91.88,4.22,1.83,3.49,1,5,2.47,5,5.47,0,4.07-3,6.27-7.63,6.27a22.64,22.64,0,0,1-9.05-2.36l1.68-4.63a19.83,19.83,0,0,0,6.87,2.05c.95,0,1.3-.23,1.3-.68,0-.76-1-.95-3.84-1.83-3.38-1-5-2.81-5-5.74,0-3.79,2.7-6,7.11-6a25,25,0,0,1,8.39,1.25Z"/><path d="M322.4,487.28a12.11,12.11,0,0,1-5.7,1.37c-4.44,0-6.34-2-6.34-7.33v-5.78h-2.51v-5.66h2.51v-3.95h6.87v3.95h4.33v5.66h-4.33V481c0,1.37.42,2.17,2.13,2.17.8,0,1.48,0,2.36,0Z"/><path d="M332.7,471c4.48-1.22,6.34-1.45,8.21-1.45,5.51,0,7.82,2.24,7.82,7.6v11.25h-6.8v-2.17a6.46,6.46,0,0,1-5,2.51c-3.84,0-6-1.33-6-5.85,0-3.92,2.62-5.74,7.82-5.74h3.23c0-1.6-.45-2.39-2.31-2.39a32,32,0,0,0-5.89.79Zm6.95,9.38c-1.52,0-2.39.42-2.39,1.63a1.77,1.77,0,0,0,2,1.79,4.1,4.1,0,0,0,2.69-1.1v-2.32Z"/><path d="M358.46,472.31c2.43-1.9,4.22-2.77,6.31-2.77,3.88,0,5.36,2,5.36,7v11.78h-6.88v-9.81c0-1.93-.34-2.54-1.71-2.54a4.21,4.21,0,0,0-3.08,1.71v10.64h-6.87V469.84h6.87Z"/><path d="M384.61,488.35v-2.09a6.09,6.09,0,0,1-5.28,2.43c-3.84,0-7.22-2.89-7.22-9.8,0-6.54,2.62-9.39,6.84-9.39a7.27,7.27,0,0,1,5.66,2.32v-7.9h6.87v24.43Zm0-11.29a3.8,3.8,0,0,0-3.12-1.78c-1.71,0-2.62,1.06-2.62,3.61,0,2.88,1,4.1,2.74,4.1a3.25,3.25,0,0,0,3-1.63Z"/><path d="M415.16,487.28a12.11,12.11,0,0,1-5.7,1.37c-4.45,0-6.35-2-6.35-7.33v-5.78h-2.5v-5.66h2.5v-3.95H410v3.95h4.33v5.66H410V481c0,1.37.42,2.17,2.13,2.17.8,0,1.48,0,2.35,0Z"/><path d="M418,471c4.48-1.22,6.35-1.45,8.21-1.45,5.51,0,7.82,2.24,7.82,7.6v11.25h-6.8v-2.17a6.46,6.46,0,0,1-5,2.51c-3.84,0-6-1.33-6-5.85,0-3.92,2.62-5.74,7.82-5.74h3.23c0-1.6-.45-2.39-2.31-2.39a32,32,0,0,0-5.89.79Zm6.95,9.38c-1.52,0-2.39.42-2.39,1.63a1.77,1.77,0,0,0,2,1.79,4.1,4.1,0,0,0,2.69-1.1v-2.32Z"/><path d="M455.63,485c0,7.22-3.19,10.15-9.69,10.15a22.23,22.23,0,0,1-8.17-1.45l.91-4.56A33,33,0,0,0,445,490c2.43,0,3.69-1.06,3.8-4.41-1.59,1.52-3,2-5.58,2-4.3,0-6.88-3-6.88-9,0-6.23,2.32-9.08,6.84-9.08a8.91,8.91,0,0,1,5.62,2.21v-1.87h6.88Zm-6.88-8.24a4.35,4.35,0,0,0-3.08-1.48c-1.78,0-2.62.87-2.62,3.3,0,2.74.95,3.61,2.74,3.61a3.75,3.75,0,0,0,3-1.33Z"/><path d="M472.61,475.35a24.49,24.49,0,0,0-6.11-1.06c-.88,0-1.48.26-1.48.83,0,.88.91.88,4.21,1.83,3.5,1,5,2.47,5,5.47,0,4.07-3,6.27-7.64,6.27a22.64,22.64,0,0,1-9-2.36l1.67-4.63a19.87,19.87,0,0,0,6.88,2.05c.95,0,1.29-.23,1.29-.68,0-.76-.95-.95-3.84-1.83-3.38-1-5-2.81-5-5.74,0-3.79,2.69-6,7.1-6a25,25,0,0,1,8.4,1.25Z"/><path d="M504,469.88c-1.86,5.66-3.68,11.1-5.7,14.93a18.78,18.78,0,0,1-11.62,9.88l-2.24-5.17a13.92,13.92,0,0,0,4.59-2.85l-6.53-16.79h7.1l2.78,7.52.83,2.85a60.39,60.39,0,0,0,3.5-10.37Z"/><path d="M523.38,479.19c0,6-3.61,9.5-9.73,9.5s-9.72-3.46-9.72-9.5,3.61-9.69,9.72-9.69S523.38,473,523.38,479.19Zm-6.73,0c0-3.23-1.14-4.29-3-4.29s-3,1.06-3,4.29c0,3.08,1.1,4.1,3,4.1S516.65,482.27,516.65,479.19Z"/><path d="M537.25,488.35v-2.17c-2.39,1.6-3.57,2.51-5.66,2.51-3.88,0-6-2.05-6-7.07V469.84h6.87v10c0,1.94.31,2.58,1.71,2.58a4.25,4.25,0,0,0,3.08-1.75V469.84h6.88v18.51Z"/><path d="M554.62,488.35V463.92h6.87v24.43Z"/><path d="M568.3,461c2,0,3.87,1.18,3.87,3.54S570.31,468,568.3,468s-3.88-1.18-3.88-3.49S566.28,461,568.3,461Zm-3.42,27.4V469.84h6.87v18.51Z"/><path d="M582,475.62l5.1-5.78h7.63v.54L588,477.86l6.91,9.95v.54H587l-3.53-5.25L582,484.74v3.61h-6.87V463.92H582Z"/><path d="M613,485.72a14.18,14.18,0,0,1-8.74,3c-5.85,0-9.49-3.27-9.49-9.46s3.53-9.73,9.53-9.73c5.32,0,8.7,3.15,8.74,8.89a16.39,16.39,0,0,1-.19,2.55h-11.4c.34,1.75,1.29,2.47,3.16,2.47a13.7,13.7,0,0,0,6.49-1.6Zm-5.92-8.43c-.08-2-1-3.08-2.78-3.08-1.56,0-2.58,1-2.89,3.08Z"/><path d="M619.29,480.9a3.88,3.88,0,1,1-3.87,3.88A3.73,3.73,0,0,1,619.29,480.9Z"/><path class="cls-1" d="M25,613.27l-9.51-22.56a6.59,6.59,0,0,1,6.74-9.11l25.35,2.6A6.58,6.58,0,0,1,52,594.84l-15.83,20A6.59,6.59,0,0,1,25,613.27Z"/><path d="M39.21,570.55l-8.58-23.18h7.9l4.06,13.15c.27.84.5,1.71.73,2.58.22-.87.45-1.74.72-2.58l4.37-13.15H56l-8.63,23.18Z"/><path d="M72.57,567.93a14.16,14.16,0,0,1-8.73,3c-5.86,0-9.5-3.27-9.5-9.46s3.53-9.72,9.53-9.72c5.32,0,8.7,3.15,8.74,8.89a16.27,16.27,0,0,1-.19,2.54H61c.35,1.75,1.3,2.47,3.16,2.47a13.62,13.62,0,0,0,6.5-1.6Zm-5.92-8.44c-.08-2-1-3.07-2.78-3.07-1.55,0-2.58,1-2.88,3.07Z"/><path d="M81.77,555.62c1.37-2.7,2.78-3.88,4.83-3.88a17.22,17.22,0,0,1,2.28.12l-.46,7c-.91-.08-1.52-.08-2.16-.08-2.25,0-3.77.57-4.49,3.19v8.59H74.9v-18.5h6.87Z"/><path d="M94.08,543.16c2,0,3.88,1.17,3.88,3.53s-1.86,3.49-3.88,3.49-3.87-1.17-3.87-3.49S92.07,543.16,94.08,543.16Zm-3.41,27.39v-18.5h6.87v18.5Z"/><path d="M115.29,570.55v-12.8h-6.35v12.8h-6.88v-12.8h-2.5v-5.67h2.5v-.41c0-5.09,2.36-7.22,7.68-7.22A21.06,21.06,0,0,1,114,545l-.57,4.6c-1,0-1.71,0-2.36,0-1.71,0-2.13.8-2.13,2.09v.38h13.22v18.5ZM115,546.69c0-2.36,1.86-3.53,3.88-3.53s3.87,1.17,3.87,3.53-1.86,3.49-3.87,3.49S115,549,115,546.69Z"/><path d="M142.91,567.93a14.17,14.17,0,0,1-8.74,3c-5.85,0-9.49-3.27-9.49-9.46s3.53-9.72,9.53-9.72c5.32,0,8.7,3.15,8.74,8.89a16.27,16.27,0,0,1-.19,2.54h-11.4c.34,1.75,1.29,2.47,3.16,2.47A13.58,13.58,0,0,0,141,564ZM137,559.49c-.08-2-1-3.07-2.78-3.07-1.56,0-2.58,1-2.89,3.07Z"/><path d="M157.09,570.55v-2.09a6.06,6.06,0,0,1-5.28,2.43c-3.84,0-7.22-2.89-7.22-9.8,0-6.54,2.62-9.38,6.84-9.38a7.26,7.26,0,0,1,5.66,2.31v-7.9H164v24.43Zm0-11.28a3.81,3.81,0,0,0-3.12-1.79c-1.71,0-2.62,1.06-2.62,3.61,0,2.89,1,4.1,2.74,4.1a3.25,3.25,0,0,0,3-1.63Z"/><path d="M175.37,553.15c4.48-1.22,6.34-1.44,8.2-1.44,5.51,0,7.83,2.24,7.83,7.59v11.25h-6.8v-2.17a6.48,6.48,0,0,1-5,2.51c-3.83,0-6-1.33-6-5.85,0-3.91,2.62-5.74,7.83-5.74h3.23c0-1.59-.46-2.39-2.32-2.39a32.27,32.27,0,0,0-5.89.8Zm6.95,9.38c-1.52,0-2.39.42-2.39,1.64a1.76,1.76,0,0,0,2,1.78,4.13,4.13,0,0,0,2.7-1.1v-2.32Z"/><path d="M210.74,568.16a12.77,12.77,0,0,1-8.43,2.73c-5,0-9-3.34-9-9.5s3.73-9.68,9-9.68a14.68,14.68,0,0,1,7.75,2l-1.87,4.37a13,13,0,0,0-4.9-1c-2.05,0-3.26,1.63-3.26,4.29s1.21,4.11,3.23,4.11a12.84,12.84,0,0,0,5.39-1.41Z"/><path d="M228.83,568.16a12.77,12.77,0,0,1-8.43,2.73c-5,0-9-3.34-9-9.5s3.72-9.68,9-9.68a14.64,14.64,0,0,1,7.75,2l-1.86,4.37a13,13,0,0,0-4.9-1c-2,0-3.27,1.63-3.27,4.29s1.22,4.11,3.23,4.11a12.84,12.84,0,0,0,5.4-1.41Z"/><path d="M249.05,561.39c0,6-3.61,9.5-9.73,9.5s-9.73-3.46-9.73-9.5,3.61-9.68,9.73-9.68S249.05,555.2,249.05,561.39Zm-6.73,0c0-3.23-1.14-4.29-3-4.29s-3,1.06-3,4.29,1.1,4.11,3,4.11S242.32,564.47,242.32,561.39Z"/><path d="M262.92,570.55v-2.17c-2.4,1.6-3.57,2.51-5.66,2.51-3.88,0-6-2-6-7.06V552.05h6.88v10c0,1.94.3,2.58,1.71,2.58a4.28,4.28,0,0,0,3.08-1.74V552.05h6.87v18.5Z"/><path d="M279.94,554.52c2.43-1.9,4.22-2.78,6.31-2.78,3.88,0,5.36,2,5.36,7v11.78h-6.88v-9.8c0-1.94-.34-2.55-1.71-2.55a4.23,4.23,0,0,0-3.08,1.71v10.64h-6.87v-18.5h6.87Z"/><path d="M307.6,569.49a12.19,12.19,0,0,1-5.69,1.36c-4.45,0-6.35-2.05-6.35-7.33v-5.77h-2.51v-5.67h2.51v-4h6.88v4h4.33v5.67h-4.33v5.47c0,1.36.42,2.16,2.13,2.16.79,0,1.48,0,2.35,0Z"/><path d="M323.76,557.56a24.68,24.68,0,0,0-6.12-1.07c-.88,0-1.48.27-1.48.84,0,.87.91.87,4.21,1.82,3.5,1,5,2.47,5,5.47,0,4.07-3,6.27-7.64,6.27a22.78,22.78,0,0,1-9-2.35l1.67-4.64a19.87,19.87,0,0,0,6.88,2.05c.95,0,1.29-.23,1.29-.68,0-.76-.95-.95-3.84-1.82-3.38-1-5-2.82-5-5.74,0-3.8,2.7-6,7.1-6a24.72,24.72,0,0,1,8.4,1.25Z"/><path d="M338.88,543.16c2,0,3.88,1.17,3.88,3.53s-1.87,3.49-3.88,3.49S335,549,335,546.69,336.87,543.16,338.88,543.16Zm-3.42,27.39v-18.5h6.88v18.5Z"/><path d="M352.71,554.55c2.09-1.93,3.73-2.81,5.78-2.81,2.58,0,4.14,1,4.86,3.16,2.62-2.44,4.33-3.16,6.23-3.16,3.8,0,5.32,2,5.32,7v11.78H368v-9.8c0-1.79-.49-2.55-1.59-2.55a3.65,3.65,0,0,0-2.59,1.52v10.83H357v-9.8c0-1.79-.53-2.55-1.64-2.55a3.76,3.76,0,0,0-2.62,1.56v10.79h-6.88v-18.5h6.88Z"/><path d="M384.71,554.14a8,8,0,0,1,5.66-2.4c4.52,0,6.84,2.81,6.84,9.39,0,6.91-3.38,9.76-7.22,9.76a6,6,0,0,1-5.28-2.43v7.87h-6.88V552.05h6.88Zm0,9.42a3.25,3.25,0,0,0,3,1.67c1.75,0,2.74-1.25,2.74-4.14,0-2.55-.92-3.61-2.59-3.61a3.81,3.81,0,0,0-3.11,1.79Z"/><path d="M406.21,555.62c1.37-2.7,2.78-3.88,4.83-3.88a17.14,17.14,0,0,1,2.28.12l-.46,7c-.91-.08-1.52-.08-2.16-.08-2.24,0-3.76.57-4.49,3.19v8.59h-6.87v-18.5h6.87Z"/><path d="M433.42,561.39c0,6-3.61,9.5-9.72,9.5s-9.73-3.46-9.73-9.5,3.61-9.68,9.73-9.68S433.42,555.2,433.42,561.39Zm-6.72,0c0-3.23-1.14-4.29-3-4.29s-3,1.06-3,4.29,1.1,4.11,3,4.11S426.7,564.47,426.7,561.39Z"/><path d="M440.19,570.55l-7.07-18.5h7.11l3,8.43c.27.88.53,1.83.76,2.74.26-.91.49-1.86.8-2.74l3-8.43h7.11l-7.07,18.5Z"/><path d="M472.71,567.93a14.17,14.17,0,0,1-8.74,3c-5.85,0-9.49-3.27-9.49-9.46s3.53-9.72,9.53-9.72c5.32,0,8.7,3.15,8.74,8.89a16.27,16.27,0,0,1-.19,2.54h-11.4c.34,1.75,1.3,2.47,3.16,2.47a13.58,13.58,0,0,0,6.49-1.6Zm-5.92-8.44c-.08-2-1-3.07-2.78-3.07-1.55,0-2.58,1-2.88,3.07Z"/><path d="M86.76,607c0,6-3.61,9.5-9.72,9.5S67.31,613,67.31,607c0-6.19,3.61-9.69,9.73-9.69S86.76,600.8,86.76,607ZM80,607c0-3.23-1.14-4.29-3-4.29s-3,1.06-3,4.29,1.11,4.11,3,4.11S80,610.07,80,607Z"/><path d="M100.63,616.15V614c-2.39,1.6-3.57,2.51-5.66,2.51-3.87,0-6-2-6-7.07V597.65h6.88v10c0,1.94.3,2.58,1.71,2.58a4.25,4.25,0,0,0,3.07-1.74V597.65h6.88v18.5Z"/><path d="M117.66,601.22c1.37-2.7,2.77-3.88,4.82-3.88a17.06,17.06,0,0,1,2.28.12l-.45,7c-.91-.08-1.52-.08-2.17-.08-2.24,0-3.76.57-4.48,3.19v8.59h-6.88v-18.5h6.88Z"/><path d="M134.83,598.75c4.49-1.22,6.35-1.45,8.21-1.45,5.51,0,7.83,2.25,7.83,7.6v11.25h-6.8V614a6.48,6.48,0,0,1-5,2.51c-3.84,0-6-1.33-6-5.85,0-3.91,2.62-5.74,7.83-5.74h3.23c0-1.59-.46-2.39-2.32-2.39a32.16,32.16,0,0,0-5.89.8Zm7,9.38c-1.52,0-2.4.42-2.4,1.64a1.77,1.77,0,0,0,2,1.78,4.13,4.13,0,0,0,2.7-1.1v-2.32Z"/><path d="M153.84,616.15V591.72h6.87v24.43Z"/><path d="M170.78,601.22c1.37-2.7,2.78-3.88,4.83-3.88a17.22,17.22,0,0,1,2.28.12l-.46,7c-.91-.08-1.52-.08-2.16-.08-2.25,0-3.77.57-4.49,3.19v8.59H163.9v-18.5h6.88Z"/><path d="M196.73,613.53a14.17,14.17,0,0,1-8.74,3c-5.85,0-9.49-3.27-9.49-9.46S182,597.3,188,597.3c5.32,0,8.7,3.16,8.74,8.9a16.27,16.27,0,0,1-.19,2.54h-11.4c.34,1.75,1.3,2.47,3.16,2.47a13.58,13.58,0,0,0,6.49-1.6Zm-5.92-8.44c-.08-2-1-3.07-2.78-3.07-1.55,0-2.58,1-2.88,3.07Z"/><path d="M200.16,598.75c4.48-1.22,6.34-1.45,8.2-1.45,5.51,0,7.83,2.25,7.83,7.6v11.25h-6.8V614a6.48,6.48,0,0,1-5,2.51c-3.83,0-6-1.33-6-5.85,0-3.91,2.62-5.74,7.83-5.74h3.23c0-1.59-.46-2.39-2.32-2.39a32.27,32.27,0,0,0-5.89.8Zm7,9.38c-1.52,0-2.39.42-2.39,1.64a1.76,1.76,0,0,0,2,1.78,4.13,4.13,0,0,0,2.7-1.1v-2.32Z"/><path d="M230.71,616.15v-2.09a6.06,6.06,0,0,1-5.28,2.43c-3.84,0-7.22-2.89-7.22-9.8,0-6.54,2.62-9.39,6.84-9.39a7.27,7.27,0,0,1,5.66,2.32v-7.9h6.87v24.43Zm0-11.28a3.81,3.81,0,0,0-3.12-1.79c-1.71,0-2.62,1.06-2.62,3.61,0,2.89,1,4.1,2.74,4.1a3.25,3.25,0,0,0,3-1.63Z"/><path d="M260.35,597.68c-1.87,5.67-3.69,11.1-5.7,14.94A18.84,18.84,0,0,1,243,622.49l-2.24-5.16a14.07,14.07,0,0,0,4.6-2.85l-6.54-16.8H246l2.77,7.53.84,2.85a61.46,61.46,0,0,0,3.49-10.38Z"/><path d="M276.12,603.42l5.09-5.77h7.64v.53l-6.77,7.48,6.92,10v.53h-7.91l-3.53-5.24-1.44,1.63v3.61h-6.88V591.72h6.88Z"/><path d="M297.43,600.12c2.44-1.9,4.22-2.78,6.31-2.78,3.88,0,5.36,2,5.36,7v11.78h-6.88v-9.8c0-1.94-.34-2.55-1.71-2.55a4.24,4.24,0,0,0-3.08,1.71v10.64h-6.87v-18.5h6.87Z"/><path d="M330.53,607c0,6-3.61,9.5-9.73,9.5s-9.72-3.46-9.72-9.5c0-6.19,3.61-9.69,9.72-9.69S330.53,600.8,330.53,607Zm-6.72,0c0-3.23-1.14-4.29-3-4.29s-3,1.06-3,4.29,1.1,4.11,3,4.11S323.81,610.07,323.81,607Z"/><path d="M347.86,616.15l-2.2-8.93-2.24,8.93h-7.6L331,597.68h6.76l2.28,9.73c.12.57.16,1.18.23,1.82.12-.6.23-1.25.38-1.82l2.58-9.73H348l2.62,9.73c.12.65.27,1.33.35,2a19,19,0,0,1,.3-2l2.24-9.69h6.76l-4.78,18.47Z"/><path d="M368.91,600.12c2.43-1.9,4.22-2.78,6.31-2.78,3.87,0,5.36,2,5.36,7v11.78H373.7v-9.8c0-1.94-.34-2.55-1.71-2.55a4.23,4.23,0,0,0-3.08,1.71v10.64H362v-18.5h6.87Z"/><path d="M404.17,615.09a12.19,12.19,0,0,1-5.69,1.36c-4.45,0-6.35-2.05-6.35-7.33v-5.77h-2.51v-5.67h2.51v-3.95H399v3.95h4.33v5.67H399v5.47c0,1.36.42,2.16,2.13,2.16.79,0,1.48,0,2.35,0Z"/><path d="M413.14,601.22c1.37-2.7,2.78-3.88,4.83-3.88a17.14,17.14,0,0,1,2.28.12l-.46,7c-.91-.08-1.52-.08-2.16-.08-2.24,0-3.76.57-4.49,3.19v8.59h-6.87v-18.5h6.87Z"/><path d="M433.55,616.15V614c-2.39,1.6-3.57,2.51-5.66,2.51-3.88,0-6-2-6-7.07V597.65h6.88v10c0,1.94.31,2.58,1.71,2.58a4.27,4.27,0,0,0,3.08-1.74V597.65h6.88v18.5Z"/><path d="M457.76,603.16a24.68,24.68,0,0,0-6.12-1.07c-.88,0-1.48.27-1.48.84,0,.87.91.87,4.21,1.82,3.5,1,5,2.47,5,5.47,0,4.07-3,6.27-7.64,6.27a22.78,22.78,0,0,1-9-2.35l1.67-4.64a19.93,19.93,0,0,0,6.88,2c.95,0,1.29-.23,1.29-.68,0-.76-.95-1-3.84-1.83-3.38-1-5-2.81-5-5.73,0-3.8,2.7-6,7.1-6a24.75,24.75,0,0,1,8.4,1.26Z"/><path d="M474.82,615.09a12.23,12.23,0,0,1-5.7,1.36c-4.45,0-6.35-2.05-6.35-7.33v-5.77h-2.5v-5.67h2.5v-3.95h6.88v3.95H474v5.67h-4.33v5.47c0,1.36.42,2.16,2.13,2.16.8,0,1.48,0,2.35,0Z"/><path d="M483.79,600.12c2.43-1.9,4.21-2.78,6.3-2.78,3.88,0,5.36,2,5.36,7v11.78h-6.88v-9.8c0-1.94-.34-2.55-1.71-2.55a4.22,4.22,0,0,0-3.07,1.71v10.64h-6.88v-18.5h6.88Z"/><path d="M515.63,613.53a14.19,14.19,0,0,1-8.74,3c-5.85,0-9.5-3.27-9.5-9.46s3.53-9.73,9.54-9.73c5.32,0,8.7,3.16,8.74,8.9a16.27,16.27,0,0,1-.19,2.54h-11.4c.34,1.75,1.29,2.47,3.15,2.47a13.62,13.62,0,0,0,6.5-1.6Zm-5.93-8.44c-.07-2-1-3.07-2.77-3.07-1.56,0-2.59,1-2.89,3.07Z"/><path d="M531.93,603.16a24.61,24.61,0,0,0-6.12-1.07c-.87,0-1.48.27-1.48.84,0,.87.92.87,4.22,1.82,3.5,1,5,2.47,5,5.47,0,4.07-3,6.27-7.64,6.27a22.78,22.78,0,0,1-9-2.35l1.67-4.64a19.81,19.81,0,0,0,6.88,2c1,0,1.29-.23,1.29-.68,0-.76-1-1-3.84-1.83-3.38-1-5-2.81-5-5.73,0-3.8,2.7-6,7.11-6a24.82,24.82,0,0,1,8.4,1.26Z"/><path d="M549.41,603.16a24.61,24.61,0,0,0-6.12-1.07c-.87,0-1.48.27-1.48.84,0,.87.91.87,4.22,1.82,3.5,1,5,2.47,5,5.47,0,4.07-3,6.27-7.64,6.27a22.78,22.78,0,0,1-9-2.35L536,609.5a19.81,19.81,0,0,0,6.88,2c1,0,1.29-.23,1.29-.68,0-.76-.95-1-3.84-1.83-3.38-1-5-2.81-5-5.73,0-3.8,2.7-6,7.11-6a24.82,24.82,0,0,1,8.4,1.26Z"/><path d="M557.47,608.7a3.88,3.88,0,1,1-3.88,3.88A3.73,3.73,0,0,1,557.47,608.7Z"/></svg>